PathFileType	4	(X/Y/Z)	C:\Users\dbl\Desktop\LZH\BX\Trimmed_bx_n_10_501.trc
DataRate	CameraRate	NumFrames	NumMarkers	Units	OrigDataRate	OrigDataStartFrame	OrigNumFrames
50.00	50.00	      8	43	mm	50.00	911	      1457
Frame#	Time	Top.Head			R.Acromium			L.Acromium			Sternum			R.ASIS			L.ASIS			V.Sacral			R.Thigh.Upper			R.Thigh.Front			R.Thigh.Rear			R.Knee.Lat			R.Knee.Med			R.Shank.Upper			R.Shank.Front			R.Shank.Rear			R.Ankle.Lat			R.Midfoot.Lat			R.Toe.Lat			R.Toe.Tip			R.Toe.Med			R.Ankle.Med			R.Midfoot.Sup			R.Heel			L.Thigh.Upper			L.Thigh.Front			L.Thigh.Rear			L.Knee.Lat			L.Knee.Med			L.Shank.Upper			L.Shank.Front			L.Shank.Rear			L.Ankle.Lat			L.Midfoot.Lat			L.Toe.Lat			L.Toe.Tip			L.Toe.Med			L.Ankle.Med			L.Midfoot.Sup			L.Heel			origin1 front left			origin2 front right			origin 3 back right			origin 4 back leftt			
		X1	Y1	Z1	X2	Y2	Z2	X3	Y3	Z3	X4	Y4	Z4	X5	Y5	Z5	X6	Y6	Z6	X7	Y7	Z7	X8	Y8	Z8	X9	Y9	Z9	X10	Y10	Z10	X11	Y11	Z11	X12	Y12	Z12	X13	Y13	Z13	X14	Y14	Z14	X15	Y15	Z15	X16	Y16	Z16	X17	Y17	Z17	X18	Y18	Z18	X19	Y19	Z19	X20	Y20	Z20	X21	Y21	Z21	X22	Y22	Z22	X23	Y23	Z23	X24	Y24	Z24	X25	Y25	Z25	X26	Y26	Z26	X27	Y27	Z27	X28	Y28	Z28	X29	Y29	Z29	X30	Y30	Z30	X31	Y31	Z31	X32	Y32	Z32	X33	Y33	Z33	X34	Y34	Z34	X35	Y35	Z35	X36	Y36	Z36	X37	Y37	Z37	X38	Y38	Z38	X39	Y39	Z39	X40	Y40	Z40	X41	Y41	Z41	X42	Y42	Z42	X43	Y43	Z43	

911	18.200	-693.90637	267.58548	1813.51611	-608.57892	96.45157	1536.53845	-615.34784	451.80057	1526.56506	-495.68500	274.64517	1358.40686	-483.66949	149.01225	1031.12793	-478.74667	378.93927	1034.86560	-684.10028	260.02719	1048.02148	-561.34149	96.53590	829.80743	-477.78986	162.89319	804.84039	-594.63348	114.25753	722.15045	-619.87842	132.16966	606.30896	-600.59399	240.37643	563.63458	-654.77393	132.64902	542.73621	-577.94104	180.44855	523.18164	-667.91589	124.80641	492.53934	-680.82794	153.87605	215.21446	-607.31958	92.33023	167.39708	-561.08197	70.49241	163.27434	-481.15793	110.10528	156.46716	-527.09735	163.97891	163.12859	-630.95483	231.05942	219.26518	-589.89948	202.78671	170.79182	-718.05829	219.58080	170.03668	-574.13306	450.72766	850.39191	-492.85907	399.53491	809.25580	-601.76477	435.20258	740.13995	-626.22827	412.04849	606.21185	-619.22803	300.24445	571.73962	-645.16693	412.67529	560.28589	-588.84705	356.09839	535.45392	-702.81726	413.47388	500.01660	-675.75220	400.49808	214.10748	-581.45239	450.87622	164.25873	-542.90442	461.58032	156.90593	-478.73627	410.10513	165.16031	-522.86481	369.89426	177.19038	-643.54633	309.60544	208.57971	-592.44214	329.68945	170.34868	-732.04132	329.36542	161.53030	-443.69586	448.92926	147.35532	-450.42914	75.09763	143.65872	-806.43805	82.73151	142.10439	-799.65533	456.73386	145.30852	
912	18.220	-695.77075	267.95013	1812.61975	-608.65527	96.57239	1536.42078	-615.66235	451.95432	1525.80371	-495.00787	274.66333	1358.62903	-481.77521	148.97858	1030.86816	-476.95496	378.92380	1034.60950	-682.20215	259.95267	1047.82996	-559.71613	96.55292	829.57477	-476.28455	162.97444	804.44971	-593.29114	114.24218	721.99109	-618.92493	132.23393	606.24908	-599.74829	240.50368	563.68030	-653.98901	132.68295	542.73572	-577.17468	180.68185	523.21887	-667.25116	124.90712	492.58423	-680.69775	153.89496	215.38498	-607.29425	92.35847	167.41904	-561.07648	70.49446	163.28163	-481.14200	110.10316	156.41940	-527.05432	163.99202	163.07893	-630.78357	231.03206	219.26849	-589.87781	202.78595	170.75684	-718.04846	219.71127	170.13298	-572.62311	450.68396	850.21320	-491.41940	399.45901	808.89417	-600.49585	435.05634	740.00793	-625.29303	411.91556	606.17084	-618.37427	300.15207	571.72382	-644.31055	412.47363	560.28558	-588.04449	355.95697	535.27692	-702.08014	413.27734	500.14352	-675.58325	400.35825	214.19054	-581.51422	450.80011	164.18867	-542.91138	461.56668	156.92024	-478.69287	410.17886	165.07361	-522.84033	369.83838	177.12317	-643.44556	309.45071	208.52408	-592.39417	329.58890	170.32054	-732.02655	329.29272	161.59111	-443.69058	448.97073	147.38057	-450.43848	75.09404	143.66386	-806.43994	82.73005	142.09848	-799.64001	456.74768	145.31105	
913	18.240	-697.29852	268.27875	1811.82971	-608.58789	96.66315	1536.32446	-615.82062	452.08371	1525.06177	-494.33041	274.64093	1358.81091	-480.04785	148.89972	1030.62036	-475.30081	378.86438	1034.36719	-680.46283	259.86905	1047.69788	-558.29224	96.56459	829.35901	-474.93652	162.97769	804.08044	-592.09540	114.20632	721.83368	-618.07855	132.29250	606.19104	-598.95105	240.59944	563.73938	-653.27454	132.71800	542.73712	-576.45648	180.92740	523.27734	-666.63483	124.99995	492.63077	-680.57373	153.92604	215.52116	-607.26660	92.38998	167.44055	-561.07355	70.49625	163.28546	-481.12689	110.10466	156.37517	-527.01794	163.98965	163.03015	-630.62994	231.00591	219.28583	-589.85681	202.78622	170.71919	-718.02039	219.83640	170.24008	-571.28503	450.60553	850.04443	-490.12051	399.39706	808.56335	-599.36743	434.92255	739.89099	-624.46454	411.78705	606.14398	-617.63483	300.04990	571.72632	-643.55463	412.30902	560.31049	-587.31207	355.85028	535.14801	-701.42609	413.09891	500.25504	-675.44843	400.21680	214.26199	-581.56482	450.72913	164.13507	-542.93243	461.55588	156.93152	-478.66269	410.29529	165.03258	-522.82031	369.79504	177.06828	-643.30524	309.31622	208.54755	-592.35449	329.50342	170.30688	-732.00879	329.23041	161.63486	-443.68576	448.97855	147.40120	-450.44421	75.09058	143.66472	-806.44702	82.73219	142.09961	-799.62213	456.75238	145.31326	
914	18.260	-698.50775	268.57709	1811.15210	-608.42059	96.72922	1536.23792	-615.84741	452.19022	1524.36206	-493.65884	274.58752	1358.94714	-478.46887	148.78989	1030.35938	-473.77872	378.77750	1034.13586	-678.87573	259.77344	1047.63306	-557.06061	96.56152	829.15588	-473.76031	162.93152	803.71912	-591.06085	114.14954	721.68262	-617.37811	132.34163	606.13928	-598.26172	240.65714	563.80194	-652.68451	132.73732	542.75513	-575.85297	181.14606	523.33514	-666.12012	125.07107	492.68820	-680.47540	153.97435	215.60361	-607.24823	92.41164	167.45360	-561.07416	70.49782	163.28458	-481.11420	110.10948	156.33751	-526.99829	163.97168	162.99287	-630.51318	230.98482	219.31088	-589.83972	202.78571	170.68271	-717.98273	219.95081	170.34761	-570.11169	450.49869	849.88214	-488.96609	399.35245	808.26074	-598.38367	434.81375	739.78491	-623.75238	411.66043	606.11951	-617.05121	299.94830	571.73004	-642.91620	412.18982	560.35748	-586.66467	355.77048	535.06519	-700.87964	412.95789	500.35175	-675.35510	400.07968	214.31313	-581.59967	450.67352	164.10295	-542.96735	461.54843	156.93971	-478.64838	410.44589	165.03825	-522.80597	369.76620	177.02919	-643.13910	309.20352	208.63348	-592.32489	329.43732	170.29970	-731.99036	329.18152	161.65979	-443.68430	448.96075	147.42207	-450.44360	75.08704	143.66273	-806.45807	82.73908	142.10762	-799.60376	456.74744	145.31273	
915	18.280	-699.41980	268.85645	1810.58630	-608.19464	96.77702	1536.15491	-615.76587	452.27301	1523.72412	-493.00101	274.51205	1359.03394	-477.02310	148.66327	1030.07056	-472.38290	378.67642	1033.91150	-677.43243	259.66812	1047.63354	-555.99786	96.53017	828.96545	-472.75534	162.86874	803.36157	-590.18567	114.07275	721.54315	-616.82916	132.37485	606.09351	-597.71698	240.67380	563.85516	-652.24469	132.72801	542.79639	-575.40173	181.30176	523.37042	-665.73431	125.10614	492.76065	-680.41467	154.03716	215.62747	-607.24707	92.41172	167.45589	-561.07703	70.49926	163.27950	-481.10510	110.11617	156.30731	-527.00085	163.94191	162.97340	-630.44061	230.97005	219.33627	-589.82916	202.78207	170.65027	-717.94257	220.04852	170.44423	-569.08136	450.37314	849.72504	-487.95233	399.31738	807.98120	-597.53741	434.73404	739.68652	-623.15387	411.53287	606.08667	-616.65417	299.85287	571.70624	-642.39972	412.10849	560.41498	-586.11151	355.69998	535.01648	-700.45306	412.86295	500.43823	-675.30170	399.95334	214.34013	-581.62000	450.63742	164.09177	-543.01111	461.54248	156.94633	-478.64941	410.61023	165.07864	-522.79742	369.75015	177.00603	-642.98376	309.11926	208.73967	-592.30432	329.39182	170.29286	-731.97369	329.14691	161.66895	-443.68777	448.93051	147.44563	-450.43536	75.08327	143.66148	-806.47137	82.75034	142.11993	-799.58777	456.73376	145.30690	
916	18.300	-700.05969	269.13107	1810.12488	-607.94427	96.81129	1536.07507	-615.59058	452.32971	1523.16089	-492.36597	274.41818	1359.07117	-475.70044	148.53009	1029.75317	-471.10538	378.56787	1033.68872	-676.12183	259.55804	1047.68860	-555.07428	96.45808	828.79126	-471.90750	162.81699	803.01202	-589.45605	113.97941	721.41980	-616.40845	132.38503	606.04858	-597.32538	240.64642	563.88306	-651.95007	132.68466	542.85846	-575.10645	181.37308	523.36804	-665.47473	125.09405	492.84601	-680.39307	154.10484	215.60352	-607.26581	92.38345	167.45093	-561.08014	70.50048	163.27171	-481.10028	110.12320	156.28357	-527.02448	163.90700	162.97177	-630.40790	230.96046	219.35635	-589.82642	202.77403	170.62346	-717.90576	220.12514	170.52008	-568.16547	450.23990	849.57422	-487.06891	399.27747	807.71832	-596.81311	434.67743	739.59521	-622.65521	411.40247	606.04010	-616.45282	299.76303	571.62384	-641.99597	412.04382	560.46576	-585.65344	355.62082	534.98676	-700.14111	412.80804	500.52182	-675.27979	399.84241	214.34386	-581.63318	450.61725	164.09511	-543.05634	461.53558	156.95348	-478.66241	410.76208	165.13342	-522.79358	369.74338	176.99516	-642.88367	309.07132	208.81531	-592.28973	329.36499	170.28304	-731.96143	329.12454	161.66858	-443.69577	448.90106	147.47084	-450.42053	75.07918	143.66454	-806.48547	82.76428	142.13278	-799.57739	456.71335	145.29507	
917	18.320	-700.45599	269.41293	1809.75244	-607.69147	96.83258	1536.00122	-615.32489	452.35742	1522.67603	-491.76349	274.30396	1359.06104	-474.49634	148.39415	1029.41858	-469.93506	378.45099	1033.46130	-674.93134	259.44772	1047.78247	-554.26147	96.33946	828.63672	-471.19263	162.79024	802.67883	-588.85101	113.87612	721.31372	-616.07672	132.36693	605.99805	-597.06897	240.56956	563.86926	-651.77197	132.60930	542.93164	-574.94269	181.35916	523.32281	-665.31415	125.03098	492.93625	-680.40253	154.16592	215.55273	-607.30151	92.32729	167.44611	-561.08185	70.50108	163.26274	-481.09967	110.12968	156.26450	-527.06134	163.87442	162.98216	-630.40302	230.95387	219.36842	-589.83160	202.76279	170.60185	-717.87640	220.17944	170.56941	-567.33636	450.10846	849.43323	-486.29980	399.21609	807.46619	-596.18890	434.62970	739.51288	-622.23535	411.26813	605.98108	-616.43066	299.67349	571.46033	-641.68347	411.96817	560.49243	-585.28192	355.52298	534.96344	-699.92010	412.77399	500.60983	-675.27795	399.74872	214.32889	-581.64948	450.60400	164.10304	-543.09570	461.52631	156.96275	-478.68225	410.87848	165.18182	-522.79230	369.74243	176.99014	-642.87146	309.06323	208.82106	-592.27747	329.35239	170.27023	-731.95544	329.10980	161.66626	-443.70627	448.88159	147.49425	-450.40210	75.07497	143.67302	-806.49963	82.77850	142.14278	-799.57544	456.68875	145.27960	
918	18.340	-700.64001	269.70691	1809.44897	-607.44385	96.83614	1535.93604	-614.96448	452.35373	1522.26428	-491.20221	274.16519	1359.00732	-473.41071	148.25253	1029.08484	-468.85849	378.31900	1033.22424	-673.84869	259.33896	1047.89795	-553.53772	96.17827	828.50031	-470.58151	162.78455	802.37006	-588.34607	113.77106	721.22180	-615.79456	132.31888	605.93768	-596.91095	240.43579	563.80151	-651.66968	132.50905	543.00275	-574.86981	181.27812	523.23889	-665.21332	124.92301	493.01950	-680.42914	154.21324	215.49718	-607.34711	92.25133	167.44971	-561.08179	70.50063	163.25365	-481.10245	110.13542	156.24875	-527.09967	163.85025	162.99565	-630.41211	230.94873	219.37260	-589.84308	202.75243	170.58220	-717.85657	220.21396	170.59225	-566.57123	449.98361	849.30768	-485.62427	399.11826	807.22125	-595.63940	434.57333	739.44244	-621.87097	411.12881	605.91650	-616.54913	299.57794	571.21045	-641.43134	411.85730	560.48224	-584.98126	355.40784	534.93866	-699.75232	412.73553	500.70605	-675.28473	399.67130	214.30225	-581.67731	450.58725	164.10593	-543.12427	461.51407	156.97433	-478.70377	410.94745	165.21014	-522.79083	369.74496	176.98358	-642.95374	309.09039	208.74423	-592.26465	329.34802	170.25740	-731.95642	329.09741	161.66872	-443.71661	448.87540	147.51224	-450.38412	75.07146	143.68437	-806.51367	82.79049	142.14803	-799.58331	456.66226	145.26506	
